<?xml version="1.0" encoding="utf-8"?>
<!-- Generator: Adobe Illustrator 23.0.2, SVG Export Plug-In . SVG Version: 6.00 Build 0)  -->
<svg version="1.1" id="レイヤー_1" xmlns="http://www.w3.org/2000/svg" xmlns:xlink="http://www.w3.org/1999/xlink" x="0px"
	 y="0px" viewBox="0 0 168.42 173.16" style="enable-background:new 0 0 168.42 173.16;" xml:space="preserve">
<style type="text/css">
	.st0{fill:none;stroke:#F5AA58;stroke-width:3;stroke-linecap:round;stroke-linejoin:round;stroke-miterlimit:10;}
	.st1{fill:none;stroke:#ED7259;stroke-width:3;stroke-linecap:round;stroke-linejoin:round;stroke-miterlimit:10;}
	.st2{fill:none;stroke:#595757;stroke-width:3;stroke-linecap:round;stroke-linejoin:round;stroke-miterlimit:10;}
</style>
<path class="st0" d="M-281.01,112.28c0,6.95-5.63,11.79-12.58,11.79s-12.58-4.84-12.58-11.79c0-8.78,9.99-16.97,12.16-18.66
	c0.25-0.2,0.59-0.2,0.84,0C-291,95.33-281.01,103.69-281.01,112.28z"/>
<path class="st1" d="M-290.1,116.28c0,1.93-1.56,3.28-3.5,3.28c-1.93,0-3.5-1.34-3.5-3.28c0-2.44,2.78-4.71,3.38-5.18
	c0.07-0.05,0.16-0.05,0.23,0C-292.87,111.58-290.1,113.9-290.1,116.28z"/>
<path class="st0" d="M-122.37,68.85c0,6.95-5.63,11.79-12.58,11.79c-6.95,0-12.58-4.84-12.58-11.79c0-8.78,9.99-16.97,12.16-18.66
	c0.25-0.2,0.59-0.2,0.84,0C-132.36,51.9-122.37,60.26-122.37,68.85z"/>
<path class="st1" d="M-131.46,72.85c0,1.93-1.56,3.28-3.5,3.28s-3.5-1.34-3.5-3.28c0-2.44,2.78-4.71,3.38-5.18
	c0.07-0.05,0.16-0.05,0.23,0C-134.23,68.15-131.46,70.47-131.46,72.85z"/>
<path class="st0" d="M-83.16,88.83c0,6.95-5.63,11.79-12.58,11.79c-6.95,0-12.58-4.84-12.58-11.79c0-8.78,9.99-16.97,12.16-18.66
	c0.25-0.2,0.59-0.2,0.84,0C-93.15,71.89-83.16,80.25-83.16,88.83z"/>
<path class="st1" d="M-92.25,92.84c0,1.93-1.56,3.28-3.5,3.28s-3.5-1.34-3.5-3.28c0-2.44,2.78-4.71,3.38-5.18
	c0.07-0.05,0.16-0.05,0.23,0C-95.02,88.13-92.25,90.45-92.25,92.84z"/>
<path class="st0" d="M-48.1,45.96c0,6.95-5.63,11.79-12.58,11.79s-12.58-4.84-12.58-11.79c0-8.78,9.99-16.97,12.16-18.66
	c0.25-0.2,0.59-0.2,0.84,0C-58.1,29.01-48.1,37.37-48.1,45.96z"/>
<path class="st1" d="M-57.19,49.96c0,1.93-1.56,3.28-3.5,3.28c-1.93,0-3.5-1.34-3.5-3.28c0-2.44,2.78-4.71,3.38-5.18
	c0.07-0.05,0.16-0.05,0.23,0C-59.97,45.26-57.19,47.58-57.19,49.96z"/>
<path class="st2" d="M-249.45,73.47c-45.26,7.75-88.29,0-88.29,0l44.15-34.16L-249.45,73.47z"/>
<path class="st2" d="M-276.86,155.25h-33.35c-3.82,0-6.91-3.09-6.91-6.91v-3.51c0-3.82,3.09-6.91,6.91-6.91h33.35
	c3.82,0,6.91,3.09,6.91,6.91v3.51C-269.95,152.16-273.04,155.25-276.86,155.25z"/>
<path class="st2" d="M-300.04,36.37c-2.69-1.81-4.45-4.89-4.45-8.37c0-5.58,4.52-10.1,10.1-10.1c5.58,0,10.1,4.52,10.1,10.1
	c0,3.1-1.4,5.88-3.61,7.73"/>
<path class="st2" d="M-122.97,88.98c-11.39-4.07-22.78,0-22.78,0l4.47,37.67h15.05L-122.97,88.98z"/>
<path class="st2" d="M-48.82,65.39c-11.39-4.07-22.78,0-22.78,0l4.47,37.67h15.05L-48.82,65.39z"/>
<path class="st2" d="M-83.99,108.34c-11.39-4.07-22.78,0-22.78,0l4.47,37.67h15.05L-83.99,108.34z"/>
<path class="st2" d="M-274.78,132.36h-37.32c-2.34,0-4.34-1.78-4.78-4.24l-6.94-38.87c-0.57-3.22,1.73-6.2,4.78-6.2h51.02
	c3.05,0,5.35,2.97,4.79,6.18L-270,128.1C-270.43,130.57-272.44,132.36-274.78,132.36z"/>
<circle class="st2" cx="82.59" cy="94.7" r="42.91"/>
<path class="st2" d="M13.72,129.48V63.43c0,0,21.27,25.23,3.8,34.28"/>
<line class="st2" x1="148.38" y1="67.19" x2="148.38" y2="127.82"/>
<path class="st2" d="M140.89,67.19c0,0-5.67,21.14,7.49,21.14c13.48,0,7.57-21.14,7.57-21.14"/>
<path class="st2" d="M76.93,66.48c-12.42,0-23.06,10.62-23.06,21.62c0,2.9,0.7,5.65,1.96,8.14c1.79,3.53,2.86,7.41,2.7,11.36
	c-0.01,0.21-0.01,0.42-0.01,0.63c0,9.5,8.72,17.21,19.47,17.21c8.08,0,18.11-6.95,19.37-7.62c3.15-1.66,6.56-2.99,9.77-4.51
	c8.41-4.01,9.45-10.19,8.9-18.43c-0.9-13.4-12.92-13.37-20.26-19.78C89.63,69.71,85.02,66.48,76.93,66.48z"/>
<circle class="st0" cx="86.3" cy="95.37" r="12.87"/>
<circle class="st1" cx="80.54" cy="93.13" r="2.56"/>
</svg>
