<?xml version="1.0" encoding="utf-8"?>
<!-- Generator: Adobe Illustrator 23.0.2, SVG Export Plug-In . SVG Version: 6.00 Build 0)  -->
<svg version="1.1" id="レイヤー_1" xmlns="http://www.w3.org/2000/svg" xmlns:xlink="http://www.w3.org/1999/xlink" x="0px"
	 y="0px" viewBox="0 0 176.09 173.16" style="enable-background:new 0 0 176.09 173.16;" xml:space="preserve">
<style type="text/css">
	.st0{fill:none;stroke:#F5AA58;stroke-width:3;stroke-linecap:round;stroke-linejoin:round;stroke-miterlimit:10;}
	.st1{fill:none;stroke:#ED7259;stroke-width:3;stroke-linecap:round;stroke-linejoin:round;stroke-miterlimit:10;}
	.st2{fill:none;stroke:#595757;stroke-width:3;stroke-linecap:round;stroke-linejoin:round;stroke-miterlimit:10;}
</style>
<path class="st0" d="M100.63,112.28c0,6.95-5.63,11.79-12.58,11.79c-6.95,0-12.58-4.84-12.58-11.79c0-8.78,9.99-16.97,12.16-18.66
	c0.25-0.2,0.59-0.2,0.84,0C90.64,95.33,100.63,103.69,100.63,112.28z"/>
<path class="st1" d="M91.55,116.28c0,1.93-1.56,3.28-3.5,3.28c-1.93,0-3.5-1.34-3.5-3.28c0-2.44,2.78-4.71,3.38-5.18
	c0.07-0.05,0.16-0.05,0.23,0C88.77,111.58,91.55,113.9,91.55,116.28z"/>
<path class="st0" d="M343.02,496.52c0,6.95-5.63,11.79-12.58,11.79s-12.58-4.84-12.58-11.79c0-8.78,9.99-16.97,12.16-18.66
	c0.25-0.2,0.59-0.2,0.84,0C333.02,479.58,343.02,487.94,343.02,496.52z"/>
<path class="st1" d="M333.93,500.53c0,1.93-1.56,3.28-3.5,3.28s-3.5-1.34-3.5-3.28c0-2.44,2.78-4.71,3.38-5.18
	c0.07-0.05,0.16-0.05,0.23,0C331.15,495.82,333.93,498.14,333.93,500.53z"/>
<path class="st0" d="M382.22,516.51c0,6.95-5.63,11.79-12.58,11.79s-12.58-4.84-12.58-11.79c0-8.78,9.99-16.97,12.16-18.66
	c0.25-0.2,0.59-0.2,0.84,0C372.23,499.56,382.22,507.92,382.22,516.51z"/>
<path class="st1" d="M373.14,520.51c0,1.93-1.56,3.28-3.5,3.28c-1.93,0-3.5-1.34-3.5-3.28c0-2.44,2.78-4.71,3.38-5.18
	c0.07-0.05,0.16-0.05,0.23,0C370.36,515.81,373.14,518.13,373.14,520.51z"/>
<path class="st0" d="M417.28,473.63c0,6.95-5.63,11.79-12.58,11.79c-6.95,0-12.58-4.84-12.58-11.79c0-8.78,9.99-16.97,12.16-18.66
	c0.25-0.2,0.59-0.2,0.84,0C407.29,456.69,417.28,465.05,417.28,473.63z"/>
<path class="st1" d="M408.19,477.64c0,1.93-1.56,3.28-3.5,3.28c-1.93,0-3.5-1.34-3.5-3.28c0-2.44,2.78-4.71,3.38-5.18
	c0.07-0.05,0.16-0.05,0.23,0C405.42,472.93,408.19,475.25,408.19,477.64z"/>
<path class="st2" d="M132.19,73.47c-45.26,7.75-88.29,0-88.29,0l44.15-34.16L132.19,73.47z"/>
<path class="st2" d="M104.78,155.25H71.43c-3.82,0-6.91-3.09-6.91-6.91v-3.51c0-3.82,3.09-6.91,6.91-6.91h33.35
	c3.82,0,6.91,3.09,6.91,6.91v3.51C111.69,152.16,108.6,155.25,104.78,155.25z"/>
<path class="st2" d="M81.6,36.37c-2.69-1.81-4.45-4.89-4.45-8.37c0-5.58,4.52-10.1,10.1-10.1s10.1,4.52,10.1,10.1
	c0,3.1-1.4,5.88-3.61,7.73"/>
<path class="st2" d="M342.41,516.66c-11.39-4.07-22.78,0-22.78,0l4.47,37.67h15.05L342.41,516.66z"/>
<path class="st2" d="M416.57,493.06c-11.39-4.07-22.78,0-22.78,0l4.47,37.67h15.05L416.57,493.06z"/>
<path class="st2" d="M381.39,536.01c-11.39-4.07-22.78,0-22.78,0l4.47,37.67h15.05L381.39,536.01z"/>
<path class="st2" d="M106.86,132.36H69.54c-2.34,0-4.34-1.78-4.78-4.24l-6.94-38.87c-0.57-3.22,1.73-6.2,4.78-6.2h51.02
	c3.05,0,5.35,2.97,4.79,6.18l-6.76,38.87C111.22,130.57,109.2,132.36,106.86,132.36z"/>
<circle class="st2" cx="563.72" cy="520.77" r="42.91"/>
<path class="st2" d="M494.85,555.55V489.5c0,0,21.27,25.23,3.8,34.28"/>
<line class="st2" x1="629.51" y1="493.26" x2="629.51" y2="553.89"/>
<path class="st2" d="M622.02,493.26c0,0-5.67,21.14,7.49,21.14c13.48,0,7.57-21.14,7.57-21.14"/>
<path class="st2" d="M558.06,492.55c-12.42,0-23.06,10.62-23.06,21.62c0,2.9,0.7,5.65,1.96,8.14c1.79,3.53,2.86,7.41,2.7,11.36
	c-0.01,0.21-0.01,0.42-0.01,0.63c0,9.5,8.72,17.21,19.47,17.21c8.08,0,18.11-6.95,19.37-7.62c3.15-1.66,6.56-2.99,9.77-4.51
	c8.41-4.01,9.45-10.19,8.9-18.43c-0.9-13.4-12.92-13.37-20.26-19.78C570.76,495.78,566.15,492.55,558.06,492.55z"/>
<circle class="st0" cx="567.42" cy="521.44" r="12.87"/>
<circle class="st1" cx="561.67" cy="519.21" r="2.56"/>
</svg>
